<mxfile host="app.diagrams.net" agent="Mozilla/5.0 (Macintosh; Intel Mac OS X 10.15; rv:143.0) Gecko/20100101 Firefox/143.0" version="28.2.5">
  <diagram name="Page-1" id="OPuIqCJ-2s3PSl-Mla_w">
    <mxGraphModel dx="925" dy="553" grid="1" gridSize="10" guides="1" tooltips="1" connect="1" arrows="1" fold="1" page="1" pageScale="1" pageWidth="827" pageHeight="1169" math="0" shadow="0">
      <root>
        <mxCell id="0" />
        <mxCell id="1" parent="0" />
        <mxCell id="lEJaAA9QKu1wA_fop8dQ-26" value="peut créer et supprimer" style="text;html=1;align=center;verticalAlign=middle;resizable=0;points=[];autosize=1;strokeColor=none;fillColor=none;" vertex="1" parent="1">
          <mxGeometry x="54.5" y="670" width="150" height="30" as="geometry" />
        </mxCell>
        <mxCell id="lEJaAA9QKu1wA_fop8dQ-55" value="Utilisateurs" style="swimlane;fontStyle=0;childLayout=stackLayout;horizontal=1;startSize=30;horizontalStack=0;resizeParent=1;resizeParentMax=0;resizeLast=0;collapsible=1;marginBottom=0;whiteSpace=wrap;html=1;" vertex="1" parent="1">
          <mxGeometry x="129.5" y="490" width="100" height="130" as="geometry">
            <mxRectangle x="200" y="510" width="100" height="30" as="alternateBounds" />
          </mxGeometry>
        </mxCell>
        <mxCell id="lEJaAA9QKu1wA_fop8dQ-56" value="&lt;div&gt;Id&lt;span style=&quot;white-space: pre;&quot;&gt;&#x9;&lt;/span&gt;&lt;/div&gt;&lt;div&gt;Prenom&lt;/div&gt;&lt;div&gt;Nom&lt;/div&gt;&lt;div&gt;Mail&lt;/div&gt;&lt;div&gt;Mot de passe&lt;/div&gt;&lt;div&gt;isAdmin&lt;/div&gt;" style="text;strokeColor=none;fillColor=none;align=left;verticalAlign=middle;spacingLeft=4;spacingRight=4;overflow=hidden;points=[[0,0.5],[1,0.5]];portConstraint=eastwest;rotatable=0;whiteSpace=wrap;html=1;" vertex="1" parent="lEJaAA9QKu1wA_fop8dQ-55">
          <mxGeometry y="30" width="100" height="100" as="geometry" />
        </mxCell>
        <mxCell id="lEJaAA9QKu1wA_fop8dQ-115" value="" style="endArrow=classic;html=1;rounded=0;exitX=-0.009;exitY=0.747;exitDx=0;exitDy=0;exitPerimeter=0;" edge="1" parent="lEJaAA9QKu1wA_fop8dQ-55" source="lEJaAA9QKu1wA_fop8dQ-56" target="lEJaAA9QKu1wA_fop8dQ-56">
          <mxGeometry width="50" height="50" relative="1" as="geometry">
            <mxPoint x="-20" y="105" as="sourcePoint" />
            <mxPoint x="20.5" y="150" as="targetPoint" />
            <Array as="points">
              <mxPoint x="-59.5" y="105" />
              <mxPoint x="-59.5" y="140" />
              <mxPoint x="-59.5" y="180" />
              <mxPoint x="-19.5" y="180" />
              <mxPoint x="50.5" y="180" />
            </Array>
          </mxGeometry>
        </mxCell>
        <mxCell id="lEJaAA9QKu1wA_fop8dQ-61" style="edgeStyle=orthogonalEdgeStyle;rounded=0;orthogonalLoop=1;jettySize=auto;html=1;entryX=1.05;entryY=0.914;entryDx=0;entryDy=0;entryPerimeter=0;" edge="1" parent="1" target="lEJaAA9QKu1wA_fop8dQ-63">
          <mxGeometry relative="1" as="geometry">
            <mxPoint x="229.5" y="550" as="sourcePoint" />
            <mxPoint x="423.5" y="550" as="targetPoint" />
          </mxGeometry>
        </mxCell>
        <mxCell id="lEJaAA9QKu1wA_fop8dQ-123" value="peut créer" style="edgeLabel;html=1;align=center;verticalAlign=middle;resizable=0;points=[];" vertex="1" connectable="0" parent="lEJaAA9QKu1wA_fop8dQ-61">
          <mxGeometry x="-0.2046" y="-2" relative="1" as="geometry">
            <mxPoint x="12" as="offset" />
          </mxGeometry>
        </mxCell>
        <mxCell id="lEJaAA9QKu1wA_fop8dQ-63" value="0.*" style="text;html=1;align=center;verticalAlign=middle;resizable=0;points=[];autosize=1;strokeColor=none;fillColor=none;" vertex="1" parent="1">
          <mxGeometry x="389.5" y="523" width="40" height="30" as="geometry" />
        </mxCell>
        <mxCell id="lEJaAA9QKu1wA_fop8dQ-65" value="" style="rhombus;whiteSpace=wrap;html=1;" vertex="1" parent="1">
          <mxGeometry x="229.5" y="540" width="20" height="20" as="geometry" />
        </mxCell>
        <mxCell id="lEJaAA9QKu1wA_fop8dQ-66" value="Fichiers" style="swimlane;fontStyle=0;childLayout=stackLayout;horizontal=1;startSize=30;horizontalStack=0;resizeParent=1;resizeParentMax=0;resizeLast=0;collapsible=1;marginBottom=0;whiteSpace=wrap;html=1;" vertex="1" parent="1">
          <mxGeometry x="430.5" y="495" width="140" height="100" as="geometry" />
        </mxCell>
        <mxCell id="lEJaAA9QKu1wA_fop8dQ-67" value="Type de fichier" style="text;strokeColor=none;fillColor=none;align=left;verticalAlign=middle;spacingLeft=4;spacingRight=4;overflow=hidden;points=[[0,0.5],[1,0.5]];portConstraint=eastwest;rotatable=0;whiteSpace=wrap;html=1;" vertex="1" parent="lEJaAA9QKu1wA_fop8dQ-66">
          <mxGeometry y="30" width="140" height="70" as="geometry" />
        </mxCell>
        <mxCell id="lEJaAA9QKu1wA_fop8dQ-112" style="edgeStyle=orthogonalEdgeStyle;rounded=0;orthogonalLoop=1;jettySize=auto;html=1;entryX=1.05;entryY=0.914;entryDx=0;entryDy=0;entryPerimeter=0;" edge="1" parent="1">
          <mxGeometry relative="1" as="geometry">
            <mxPoint x="229.5" y="587" as="sourcePoint" />
            <mxPoint x="431.5" y="587.4200000000001" as="targetPoint" />
          </mxGeometry>
        </mxCell>
        <mxCell id="lEJaAA9QKu1wA_fop8dQ-122" value="peut supprimer" style="edgeLabel;html=1;align=center;verticalAlign=middle;resizable=0;points=[];" vertex="1" connectable="0" parent="lEJaAA9QKu1wA_fop8dQ-112">
          <mxGeometry x="-0.266" relative="1" as="geometry">
            <mxPoint x="26" y="-2" as="offset" />
          </mxGeometry>
        </mxCell>
        <mxCell id="lEJaAA9QKu1wA_fop8dQ-114" value="1.*" style="text;html=1;align=center;verticalAlign=middle;resizable=0;points=[];autosize=1;strokeColor=none;fillColor=none;" vertex="1" parent="1">
          <mxGeometry x="400.5" y="560" width="40" height="30" as="geometry" />
        </mxCell>
        <mxCell id="lEJaAA9QKu1wA_fop8dQ-116" value="Type de fichiers" style="swimlane;fontStyle=0;childLayout=stackLayout;horizontal=1;startSize=30;horizontalStack=0;resizeParent=1;resizeParentMax=0;resizeLast=0;collapsible=1;marginBottom=0;whiteSpace=wrap;html=1;" vertex="1" parent="1">
          <mxGeometry x="660" y="475" width="140" height="150" as="geometry" />
        </mxCell>
        <mxCell id="lEJaAA9QKu1wA_fop8dQ-117" value="&lt;div&gt;PDF&lt;/div&gt;&lt;div&gt;XLSX&lt;/div&gt;&lt;div&gt;DOC&lt;/div&gt;&lt;div&gt;DOCX&lt;/div&gt;&lt;div&gt;XLS&lt;/div&gt;&lt;div&gt;MP3&lt;/div&gt;&lt;div&gt;MP4]&lt;/div&gt;" style="text;strokeColor=none;fillColor=none;align=left;verticalAlign=middle;spacingLeft=4;spacingRight=4;overflow=hidden;points=[[0,0.5],[1,0.5]];portConstraint=eastwest;rotatable=0;whiteSpace=wrap;html=1;" vertex="1" parent="lEJaAA9QKu1wA_fop8dQ-116">
          <mxGeometry y="30" width="140" height="120" as="geometry" />
        </mxCell>
        <mxCell id="lEJaAA9QKu1wA_fop8dQ-119" style="edgeStyle=orthogonalEdgeStyle;rounded=0;orthogonalLoop=1;jettySize=auto;html=1;entryX=-0.002;entryY=0.461;entryDx=0;entryDy=0;entryPerimeter=0;" edge="1" parent="1" source="lEJaAA9QKu1wA_fop8dQ-67" target="lEJaAA9QKu1wA_fop8dQ-117">
          <mxGeometry relative="1" as="geometry" />
        </mxCell>
        <mxCell id="lEJaAA9QKu1wA_fop8dQ-121" value="possède" style="edgeLabel;html=1;align=center;verticalAlign=middle;resizable=0;points=[];" vertex="1" connectable="0" parent="lEJaAA9QKu1wA_fop8dQ-119">
          <mxGeometry x="-0.421" relative="1" as="geometry">
            <mxPoint x="13" as="offset" />
          </mxGeometry>
        </mxCell>
        <mxCell id="lEJaAA9QKu1wA_fop8dQ-120" value="1" style="text;html=1;align=center;verticalAlign=middle;resizable=0;points=[];autosize=1;strokeColor=none;fillColor=none;" vertex="1" parent="1">
          <mxGeometry x="634" y="532" width="30" height="30" as="geometry" />
        </mxCell>
        <mxCell id="lEJaAA9QKu1wA_fop8dQ-124" value="Partage" style="swimlane;fontStyle=0;childLayout=stackLayout;horizontal=1;startSize=30;horizontalStack=0;resizeParent=1;resizeParentMax=0;resizeLast=0;collapsible=1;marginBottom=0;whiteSpace=wrap;html=1;" vertex="1" parent="1">
          <mxGeometry x="400.5" y="690" width="140" height="90" as="geometry" />
        </mxCell>
        <mxCell id="lEJaAA9QKu1wA_fop8dQ-125" value="&lt;div&gt;users&lt;/div&gt;&lt;div&gt;fichiers&lt;/div&gt;&lt;div&gt;dates de partage&lt;/div&gt;" style="text;strokeColor=none;fillColor=none;align=left;verticalAlign=middle;spacingLeft=4;spacingRight=4;overflow=hidden;points=[[0,0.5],[1,0.5]];portConstraint=eastwest;rotatable=0;whiteSpace=wrap;html=1;" vertex="1" parent="lEJaAA9QKu1wA_fop8dQ-124">
          <mxGeometry y="30" width="140" height="60" as="geometry" />
        </mxCell>
        <mxCell id="lEJaAA9QKu1wA_fop8dQ-129" value="*" style="text;html=1;align=center;verticalAlign=middle;resizable=0;points=[];autosize=1;strokeColor=none;fillColor=none;" vertex="1" parent="1">
          <mxGeometry x="375" y="722" width="30" height="30" as="geometry" />
        </mxCell>
        <mxCell id="lEJaAA9QKu1wA_fop8dQ-130" value="1" style="text;html=1;align=center;verticalAlign=middle;resizable=0;points=[];autosize=1;strokeColor=none;fillColor=none;" vertex="1" parent="1">
          <mxGeometry x="216" y="620" width="30" height="30" as="geometry" />
        </mxCell>
        <mxCell id="lEJaAA9QKu1wA_fop8dQ-132" value="" style="endArrow=none;html=1;rounded=0;entryX=0.806;entryY=1.003;entryDx=0;entryDy=0;entryPerimeter=0;exitX=0;exitY=0.5;exitDx=0;exitDy=0;" edge="1" parent="1" source="lEJaAA9QKu1wA_fop8dQ-125" target="lEJaAA9QKu1wA_fop8dQ-56">
          <mxGeometry width="50" height="50" relative="1" as="geometry">
            <mxPoint x="214.5" y="730" as="sourcePoint" />
            <mxPoint x="264.5" y="680" as="targetPoint" />
            <Array as="points">
              <mxPoint x="210" y="750" />
            </Array>
          </mxGeometry>
        </mxCell>
        <mxCell id="lEJaAA9QKu1wA_fop8dQ-133" value="" style="endArrow=none;html=1;rounded=0;exitX=0.5;exitY=0;exitDx=0;exitDy=0;entryX=0.288;entryY=1.021;entryDx=0;entryDy=0;entryPerimeter=0;" edge="1" parent="1" source="lEJaAA9QKu1wA_fop8dQ-124" target="lEJaAA9QKu1wA_fop8dQ-67">
          <mxGeometry width="50" height="50" relative="1" as="geometry">
            <mxPoint x="500" y="640" as="sourcePoint" />
            <mxPoint x="510" y="630" as="targetPoint" />
          </mxGeometry>
        </mxCell>
        <mxCell id="lEJaAA9QKu1wA_fop8dQ-134" value="*" style="text;html=1;align=center;verticalAlign=middle;resizable=0;points=[];autosize=1;strokeColor=none;fillColor=none;" vertex="1" parent="1">
          <mxGeometry x="467" y="669" width="30" height="30" as="geometry" />
        </mxCell>
        <mxCell id="lEJaAA9QKu1wA_fop8dQ-135" value="1" style="text;html=1;align=center;verticalAlign=middle;resizable=0;points=[];autosize=1;strokeColor=none;fillColor=none;" vertex="1" parent="1">
          <mxGeometry x="468" y="591" width="30" height="30" as="geometry" />
        </mxCell>
      </root>
    </mxGraphModel>
  </diagram>
</mxfile>
